<?xml version="1.0" encoding="UTF-8" standalone="no"?>
<!-- Created with Inkscape (http://www.inkscape.org/) -->

<svg
   version="1.1"
   id="svg2"
   width="2933.3333"
   height="1866.6667"
   viewBox="0 0 2933.3333 1866.6667"
   sodipodi:docname="Paw Print Path.eps"
   xmlns:inkscape="http://www.inkscape.org/namespaces/inkscape"
   xmlns:sodipodi="http://sodipodi.sourceforge.net/DTD/sodipodi-0.dtd"
   xmlns="http://www.w3.org/2000/svg"
   xmlns:svg="http://www.w3.org/2000/svg">
  <defs
     id="defs6" />
  <sodipodi:namedview
     id="namedview4"
     pagecolor="#ffffff"
     bordercolor="#000000"
     borderopacity="0.25"
     inkscape:showpageshadow="2"
     inkscape:pageopacity="0.0"
     inkscape:pagecheckerboard="0"
     inkscape:deskcolor="#d1d1d1"
     showgrid="false" />
  <g
     id="g10"
     inkscape:groupmode="layer"
     inkscape:label="Page 1"
     transform="matrix(1.3333333,0,0,-1.3333333,0,1866.6667)">
    <g
       id="g12"
       transform="scale(0.1)">
      <path
         d="m 307.301,7403.3 c -4,-39.2 -32.102,-71.5 -61.903,-97.2 C 176.199,7246.5 90.1016,7207 0,7192.3 v 320.2 c 38.6992,13.6 79.1992,21.6 120.102,23.6 43.5,2.1 88.796,-3 126.199,-25.2 37.5,-22.2 65.398,-64.3 61,-107.6"
         style="fill:#040606;fill-opacity:0.1;fill-rule:nonzero;stroke:none"
         id="path16" />
      <path
         d="M 122.102,6554.2 C 91.8008,6528.1 51.6016,6516.2 11.8984,6511 8,6510.5 4,6510 0,6509.6 v 269.7 c 30.6992,-10.1 60.3984,-23.5 88.1992,-40 31.1018,-18.5 61.8008,-43.1 71.6988,-77.9 10.903,-38.5 -7.5,-81.1 -37.796,-107.2"
         style="fill:#040606;fill-opacity:0.1;fill-rule:nonzero;stroke:none"
         id="path18" />
      <path
         d="M 366.5,6918.5 C 340.699,6883.4 300.898,6861.1 260,6846.1 177.301,6815.6 85.1016,6811.8 0,6834.9 v 276.9 c 93.1016,25.9 193.801,24.5 285.801,-5.1 37.5,-12.1 76,-30.8 94.898,-65.3 20.903,-38.2 11.699,-87.9 -14.199,-122.9"
         style="fill:#040606;fill-opacity:0.1;fill-rule:nonzero;stroke:none"
         id="path20" />
      <path
         d="m 624.699,8671.4 c -6.597,-123.6 -71,-279.9 -150.5,-375.1 -44.301,-53.1 -99.699,-100.6 -166.699,-117.8 -67,-17.2 -146.801,2.8 -184.5,60.8 -49.6016,76.5 -8.602,178.1 -51.5,266 -16.8984,34.7 -43.6016,60.5 -71.5,84.2 v 328.1 c 47.1992,23.1 101.699,32 154.699,33.7 124,4.1 286.801,-41.4 388.301,-112.3 54.301,-37.9 85.301,-101.4 81.699,-167.6"
         style="fill:#040606;fill-opacity:0.1;fill-rule:nonzero;stroke:none"
         id="path22" />
      <path
         d="m 416.25,9012.56 c -23.848,-11.72 -49.203,-21.48 -75.707,-23.32 -2.609,-0.18 -5.242,-0.27 -7.855,-0.28 -34.754,-0.12 -65.672,22.52 -75.821,55.74 -0.043,0.15 -0.086,0.29 -0.133,0.45 -14.304,47.43 -5.054,99.16 13.11,145.26 32.172,81.65 92.554,151.87 168.449,195.91 34.613,20.09 73.742,35.09 113.703,32.81 39.953,-2.26 80.477,-24.88 95.215,-62.1 13.316,-33.63 3.98,-71.86 -9.473,-105.44 -41.34,-103.12 -121.82,-189.97 -221.488,-239.03"
         style="fill:#040606;fill-opacity:0.1;fill-rule:nonzero;stroke:none"
         id="path24" />
      <path
         d="m 725.258,8880.17 c -28.137,-6.69 -57.395,-10.91 -85.957,-6.44 -2.813,0.44 -5.625,0.97 -8.395,1.6 -36.906,8.28 -64.23,39.78 -66.961,77.47 -0.007,0.18 -0.019,0.33 -0.031,0.52 -3.711,53.77 18.617,106.42 49.043,150.93 53.871,78.83 134.914,138.74 226.086,167.1 41.578,12.95 86.719,19.4 128.559,7.32 41.848,-12.07 79.368,-45.86 86.008,-88.91 5.98,-38.9 -13.17,-77.21 -35.56,-109.58 -68.8,-99.4 -175.179,-172.08 -292.792,-200.01"
         style="fill:#040606;fill-opacity:0.1;fill-rule:nonzero;stroke:none"
         id="path26" />
      <path
         d="m 683.465,8464.69 c -23.926,-11.57 -47.231,-25.54 -64.992,-45.3 -1.75,-1.94 -3.442,-3.96 -5.059,-6.01 -21.488,-27.31 -22.684,-65.62 -2.754,-94.07 0.09,-0.12 0.18,-0.24 0.27,-0.38 28.57,-40.47 75.027,-65.03 122.539,-79.1 84.144,-24.92 176.66,-20.57 258.086,12.12 37.145,14.91 73.055,36.51 95.865,69.4 22.81,32.87 29.93,78.74 9.68,113.26 -18.3,31.2 -54.18,47.38 -88.92,57.46 -106.707,30.9 -224.7,20.96 -324.715,-27.38"
         style="fill:#040606;fill-opacity:0.1;fill-rule:nonzero;stroke:none"
         id="path28" />
      <path
         d="m 769.379,8789.71 c -22.59,-18.06 -43.93,-38.52 -57.996,-63.78 -1.383,-2.48 -2.695,-5.03 -3.906,-7.59 -16.2,-34.18 -8.196,-75.11 19.824,-100.47 0.133,-0.11 0.25,-0.22 0.387,-0.34 40.089,-36.03 95.324,-50.85 149.128,-54.28 95.289,-6.09 192.394,20.9 270.874,75.28 35.8,24.79 68.67,56.39 84.91,96.8 16.26,40.4 12.73,90.78 -17.11,122.51 -26.96,28.67 -68.94,37.16 -108.24,39.45 -120.684,6.98 -243.445,-32.1 -337.871,-107.58"
         style="fill:#040606;fill-opacity:0.1;fill-rule:nonzero;stroke:none"
         id="path30" />
      <path
         d="m 1233.69,6965.97 c -69.17,0.17 -141.43,39.6 -163.35,105.2 -28.88,86.44 36.38,174.55 16.93,270.43 -19.45,95.86 -113.883,151.57 -120.973,242.43 -5.375,68.96 45.803,133.43 109.443,160.55 63.65,27.1 136.47,23.04 203.96,7.87 121,-27.2 267.18,-112.05 347.66,-206.14 43.07,-50.36 57.12,-119.62 37.08,-182.78 -37.45,-118.02 -139.01,-253.13 -239.85,-325.34 -56.24,-40.26 -121.72,-72.38 -190.9,-72.22"
         style="fill:#040606;fill-opacity:0.1;fill-rule:nonzero;stroke:none"
         id="path32" />
      <path
         d="m 1548.23,7746.09 c -26.03,-5.37 -53.02,-8.45 -79.14,-3.58 -2.57,0.48 -5.14,1.05 -7.67,1.69 -33.67,8.61 -57.92,38.29 -59.41,72.99 0,0.15 -0.01,0.3 -0.02,0.47 -1.94,49.5 19.99,97.25 49.14,137.32 51.64,70.96 127.71,123.79 212.22,147.38 38.55,10.76 80.19,15.46 118.3,3.23 38.11,-12.21 71.66,-44.29 76.59,-84.01 4.45,-35.89 -14.18,-70.56 -35.63,-99.69 -65.89,-89.44 -165.59,-153.32 -274.38,-175.8"
         style="fill:#040606;fill-opacity:0.1;fill-rule:nonzero;stroke:none"
         id="path34" />
      <path
         d="m 1814.13,7540.39 c -28.91,0.59 -58.29,3.84 -84.82,15.34 -2.61,1.13 -5.2,2.35 -7.73,3.65 -33.65,17.27 -52.19,54.63 -45.38,91.8 0.04,0.17 0.07,0.32 0.1,0.5 9.91,52.99 44.73,98.35 85.35,133.8 71.93,62.8 165.41,100.45 260.78,105.03 43.5,2.1 88.81,-2.99 126.29,-25.18 37.48,-22.18 65.31,-64.31 60.94,-107.65 -3.97,-39.15 -32.12,-71.43 -61.92,-97.15 -91.54,-78.95 -212.75,-122.61 -333.61,-120.14"
         style="fill:#040606;fill-opacity:0.1;fill-rule:nonzero;stroke:none"
         id="path36" />
      <path
         d="m 1669.42,7148.7 c -26.07,-5.2 -52.13,-12.88 -74.28,-27.55 -2.18,-1.44 -4.32,-2.97 -6.41,-4.55 -27.65,-21.05 -38.42,-57.82 -26.26,-90.37 0.05,-0.14 0.11,-0.28 0.16,-0.43 17.5,-46.35 56.31,-81.78 98.77,-107.32 75.2,-45.23 165.85,-64.24 252.87,-53.03 39.7,5.11 79.88,17.01 110.21,43.13 30.33,26.09 48.73,68.7 37.8,107.2 -9.89,34.8 -40.56,59.47 -71.66,77.93 -95.54,56.7 -212.25,76.68 -321.2,54.99"
         style="fill:#040606;fill-opacity:0.1;fill-rule:nonzero;stroke:none"
         id="path38" />
      <path
         d="m 1834.14,7441.75 c -26.4,-11.81 -52.19,-26.26 -72.14,-47.18 -1.96,-2.06 -3.87,-4.19 -5.69,-6.37 -24.26,-29.02 -26.78,-70.65 -6.02,-102.23 0.1,-0.14 0.19,-0.27 0.29,-0.43 29.76,-44.93 79.51,-73.14 130.74,-89.96 90.71,-29.8 191.48,-28.05 281.09,4.9 40.88,15.02 80.63,37.36 106.49,72.4 25.88,35.03 35.09,84.68 14.18,122.89 -18.91,34.51 -57.42,53.27 -94.88,65.34 -115.07,37.04 -243.72,30.01 -354.06,-19.36"
         style="fill:#040606;fill-opacity:0.1;fill-rule:nonzero;stroke:none"
         id="path40" />
      <path
         d="m 2209.91,8532.88 c -67.01,-17.19 -146.85,2.85 -184.53,60.85 -49.64,76.42 -8.58,178.09 -51.47,266.02 -42.88,87.92 -148.27,118.15 -177.93,204.32 -22.51,65.4 10.86,140.66 65.66,182.87 54.8,42.21 126.32,56.55 195.45,58.8 123.96,4.04 286.75,-41.42 388.27,-112.31 54.33,-37.93 85.31,-101.45 81.76,-167.62 -6.64,-123.64 -71.05,-279.92 -150.54,-375.11 -44.34,-53.09 -99.67,-100.62 -166.67,-117.82"
         style="fill:#040606;fill-opacity:0.1;fill-rule:nonzero;stroke:none"
         id="path42" />
      <path
         d="m 2318.63,9366.97 c -23.85,-11.73 -49.21,-21.49 -75.71,-23.32 -2.61,-0.19 -5.24,-0.28 -7.85,-0.29 -34.76,-0.12 -65.68,22.52 -75.83,55.75 -0.04,0.14 -0.08,0.29 -0.13,0.44 -14.3,47.43 -5.05,99.16 13.11,145.26 32.17,81.65 92.56,151.88 168.45,195.92 34.61,20.09 73.74,35.09 113.7,32.81 39.96,-2.26 80.48,-24.89 95.22,-62.1 13.32,-33.63 3.98,-71.87 -9.47,-105.44 -41.34,-103.12 -121.83,-189.97 -221.49,-239.03"
         style="fill:#040606;fill-opacity:0.1;fill-rule:nonzero;stroke:none"
         id="path44" />
      <path
         d="m 2627.64,9234.57 c -28.14,-6.68 -57.4,-10.91 -85.96,-6.44 -2.81,0.44 -5.63,0.98 -8.4,1.6 -36.9,8.28 -64.23,39.78 -66.96,77.48 0,0.17 -0.02,0.33 -0.03,0.51 -3.71,53.77 18.62,106.42 49.04,150.93 53.87,78.84 134.92,138.74 226.09,167.11 41.58,12.95 86.72,19.39 128.56,7.31 41.85,-12.06 79.36,-45.86 86.01,-88.91 5.98,-38.9 -13.17,-77.2 -35.56,-109.58 -68.8,-99.4 -175.18,-172.07 -292.79,-200.01"
         style="fill:#040606;fill-opacity:0.1;fill-rule:nonzero;stroke:none"
         id="path46" />
      <path
         d="m 2585.84,8819.1 c -23.92,-11.58 -47.23,-25.55 -64.99,-45.3 -1.75,-1.95 -3.44,-3.96 -5.06,-6.02 -21.49,-27.31 -22.68,-65.61 -2.75,-94.07 0.09,-0.12 0.18,-0.24 0.27,-0.37 28.57,-40.48 75.02,-65.04 122.54,-79.1 84.14,-24.92 176.66,-20.58 258.08,12.11 37.15,14.91 73.06,36.51 95.87,69.4 22.81,32.88 29.93,78.74 9.68,113.27 -18.3,31.2 -54.18,47.38 -88.92,57.45 -106.71,30.91 -224.7,20.96 -324.72,-27.37"
         style="fill:#040606;fill-opacity:0.1;fill-rule:nonzero;stroke:none"
         id="path48" />
      <path
         d="m 2671.76,9144.11 c -22.59,-18.06 -43.93,-38.51 -58,-63.77 -1.38,-2.49 -2.69,-5.03 -3.91,-7.6 -16.19,-34.18 -8.19,-75.11 19.83,-100.47 0.13,-0.11 0.25,-0.21 0.38,-0.34 40.09,-36.03 95.33,-50.85 149.13,-54.27 95.29,-6.09 192.4,20.89 270.88,75.27 35.8,24.79 68.67,56.4 84.91,96.8 16.26,40.41 12.72,90.78 -17.11,122.52 -26.97,28.66 -68.94,37.15 -108.24,39.44 -120.68,6.98 -243.45,-32.1 -337.87,-107.58"
         style="fill:#040606;fill-opacity:0.1;fill-rule:nonzero;stroke:none"
         id="path50" />
      <path
         d="m 3064.66,7419.11 c -68.71,7.94 -136.09,55.24 -150.5,122.89 -18.99,89.13 55.75,169.35 47.19,266.81 -8.56,97.44 -96.14,163.41 -92.98,254.48 2.4,69.13 60.5,127.45 126.78,147.24 66.29,19.79 138.2,7.57 203.55,-15.08 117.19,-40.61 252.91,-141.35 322.32,-243.88 37.14,-54.87 43.32,-125.28 16.32,-185.78 -50.47,-113.07 -166.56,-235.92 -274.87,-296.35 -60.41,-33.69 -129.09,-58.25 -197.81,-50.33"
         style="fill:#040606;fill-opacity:0.1;fill-rule:nonzero;stroke:none"
         id="path52" />
      <path
         d="m 3464.82,8158.97 c -26.47,-2.41 -53.64,-2.44 -79.04,5.34 -2.5,0.76 -4.99,1.62 -7.43,2.54 -32.49,12.34 -53.26,44.55 -50.84,79.2 0.02,0.15 0.03,0.3 0.04,0.46 3.63,49.41 30.78,94.4 64.25,130.94 59.27,64.72 140.8,108.67 227.43,122.61 39.51,6.37 81.41,6.36 117.91,-10.07 36.49,-16.42 66.23,-52.06 66.67,-92.08 0.39,-36.17 -22.02,-68.52 -46.6,-95.06 -75.52,-81.48 -181.76,-133.75 -292.39,-143.88"
         style="fill:#040606;fill-opacity:0.1;fill-rule:nonzero;stroke:none"
         id="path54" />
      <path
         d="m 3705.94,7924.72 c -28.66,3.83 -57.5,10.36 -82.57,24.76 -2.46,1.42 -4.9,2.92 -7.26,4.5 -31.49,20.94 -45.73,60.14 -34.78,96.31 0.05,0.17 0.1,0.32 0.15,0.5 15.79,51.53 55.49,92.69 99.84,123.36 78.52,54.32 175.64,81.24 270.93,75.08 43.45,-2.8 87.91,-12.94 122.65,-39.2 34.75,-26.25 57.68,-71.24 48.47,-113.82 -8.34,-38.46 -39.94,-67.37 -72.44,-89.58 -99.82,-68.17 -225.17,-97.94 -344.99,-81.91"
         style="fill:#040606;fill-opacity:0.1;fill-rule:nonzero;stroke:none"
         id="path56" />
      <path
         d="m 3518.16,7551.75 c -26.49,-2.24 -53.25,-6.94 -76.91,-19.03 -2.33,-1.18 -4.63,-2.46 -6.87,-3.8 -29.85,-17.81 -44.68,-53.14 -36.25,-86.85 0.03,-0.14 0.07,-0.29 0.11,-0.45 12.19,-48.01 46.77,-87.58 86.09,-117.73 69.65,-53.39 157.59,-82.46 245.32,-81.09 40.02,0.62 81.28,7.93 114.35,30.48 33.08,22.52 56.14,62.8 49.6,102.28 -5.92,35.69 -33.62,63.64 -62.45,85.48 -88.57,67.07 -202.3,100.03 -312.99,90.71"
         style="fill:#040606;fill-opacity:0.1;fill-rule:nonzero;stroke:none"
         id="path58" />
      <path
         d="m 3714.75,7824.45 c -27.56,-8.77 -54.81,-20.23 -76.99,-38.78 -2.18,-1.82 -4.32,-3.73 -6.37,-5.69 -27.36,-26.11 -34.54,-67.19 -17.46,-100.9 0.08,-0.15 0.15,-0.3 0.24,-0.46 24.53,-47.99 70.8,-81.61 119.81,-104.07 86.79,-39.81 187.12,-49.38 279.87,-26.7 42.3,10.33 84.31,28.06 113.94,59.98 29.65,31.9 44.38,80.2 27.89,120.52 -14.92,36.42 -51.07,59.37 -86.94,75.58 -110.18,49.73 -238.8,57.19 -353.99,20.52"
         style="fill:#040606;fill-opacity:0.1;fill-rule:nonzero;stroke:none"
         id="path60" />
      <path
         d="m 4199.39,8895.6 c -68.51,-9.56 -145.6,19.31 -176.53,81.18 -40.74,81.52 11.48,177.93 -21.26,270.12 -32.74,92.18 -134.07,134.06 -153.87,223.01 -15.02,67.52 26.59,138.55 85.78,174.34 59.2,35.79 131.88,42.01 200.82,36.48 123.63,-9.91 280.29,-73.37 373.2,-155.2 49.73,-43.8 73.38,-110.4 62.42,-175.75 -20.48,-122.11 -102.03,-270.16 -191.71,-355.83 -50.02,-47.77 -110.34,-88.78 -178.85,-98.35"
         style="fill:#040606;fill-opacity:0.1;fill-rule:nonzero;stroke:none"
         id="path62" />
      <path
         d="m 4401.09,9712.2 c -25.01,-8.98 -51.31,-15.83 -77.85,-14.68 -2.61,0.12 -5.23,0.32 -7.83,0.6 -34.55,3.79 -62.73,29.76 -69.08,63.91 -0.03,0.15 -0.06,0.3 -0.09,0.46 -8.88,48.73 6.12,99.1 29.34,142.87 41.14,77.52 109.03,140.54 189.39,175.74 36.65,16.1 77.21,26.6 116.67,19.8 39.44,-6.7 77.17,-33.7 87.64,-72.3 9.45,-34.96 -4.12,-71.91 -21.26,-103.76 -52.66,-97.82 -142.38,-175.09 -246.93,-212.64"
         style="fill:#040606;fill-opacity:0.1;fill-rule:nonzero;stroke:none"
         id="path64" />
      <path
         d="m 4693.28,9545.94 c -28.71,-3.49 -58.26,-4.4 -86.14,3.25 -2.74,0.75 -5.48,1.6 -8.16,2.53 -35.74,12.37 -59.36,46.75 -57.84,84.51 0.01,0.17 0.02,0.33 0.03,0.51 2.35,53.85 30.45,103.66 65.68,144.47 62.38,72.29 149.64,122.71 243.42,140.66 42.77,8.2 88.35,9.53 128.57,-7.17 40.23,-16.69 73.71,-54.48 75.48,-98.01 1.58,-39.32 -21.76,-75.24 -47.64,-104.89 -79.53,-91.04 -193.4,-151.31 -313.4,-165.86"
         style="fill:#040606;fill-opacity:0.1;fill-rule:nonzero;stroke:none"
         id="path66" />
      <path
         d="m 4605.09,9137.78 c -25.08,-8.81 -49.8,-20.08 -69.67,-37.71 -1.96,-1.74 -3.86,-3.55 -5.7,-5.41 -24.42,-24.73 -29.91,-62.65 -13.3,-93.16 0.07,-0.13 0.15,-0.27 0.22,-0.41 23.85,-43.42 67.25,-73.05 112.88,-92.36 80.82,-34.21 173.24,-40.28 257.82,-16.94 38.58,10.64 76.69,28.07 103.05,58.19 26.36,30.11 38.58,74.88 22.34,111.46 -14.68,33.06 -48.52,53.17 -81.9,67.08 -102.57,42.69 -220.93,46.06 -325.74,9.26"
         style="fill:#040606;fill-opacity:0.1;fill-rule:nonzero;stroke:none"
         id="path68" />
      <path
         d="m 4726.96,9451.09 c -24.47,-15.41 -47.98,-33.33 -64.79,-56.86 -1.65,-2.31 -3.25,-4.69 -4.74,-7.1 -19.93,-32.15 -16.58,-73.72 8.42,-102.06 0.12,-0.13 0.22,-0.25 0.34,-0.38 35.8,-40.31 89.02,-61.24 142.1,-70.68 94,-16.76 193.52,-0.85 277.61,44.37 38.36,20.62 74.57,48.33 95.25,86.66 20.69,38.32 22.83,88.77 -3.25,123.66 -23.57,31.51 -64.33,44.66 -103.12,51.35 -119.14,20.49 -245.52,-4.56 -347.82,-68.96"
         style="fill:#040606;fill-opacity:0.1;fill-rule:nonzero;stroke:none"
         id="path70" />
      <path
         d="m 4722.13,7329.14 c -63.98,26.31 -115.97,90.13 -111.46,159.15 5.95,90.94 99.68,147.84 117.92,243.95 18.24,96.11 -48.12,183.39 -20.34,270.18 21.1,65.87 92.86,106.21 162.03,107.25 69.16,1.03 135.05,-30.27 191.79,-69.82 101.74,-70.93 204.99,-204.75 243.92,-322.29 20.84,-62.9 7.66,-132.33 -34.78,-183.22 -79.29,-95.1 -224.39,-181.79 -345.04,-210.51 -67.29,-16.01 -140.06,-20.99 -204.04,5.31"
         style="fill:#040606;fill-opacity:0.1;fill-rule:nonzero;stroke:none"
         id="path72" />
      <path
         d="m 5308.27,7932.43 c -26.13,4.88 -52.29,12.23 -74.62,26.61 -2.2,1.42 -4.36,2.92 -6.47,4.47 -27.92,20.7 -39.14,57.34 -27.4,90.03 0.05,0.14 0.11,0.29 0.16,0.44 16.92,46.56 55.28,82.48 97.41,108.55 74.63,46.18 165.03,66.32 252.19,56.21 39.75,-4.61 80.08,-16 110.74,-41.74 30.66,-25.71 49.59,-68.09 39.14,-106.72 -9.45,-34.92 -39.81,-59.97 -70.67,-78.83 -94.82,-57.89 -211.27,-79.33 -320.48,-59.02"
         style="fill:#040606;fill-opacity:0.1;fill-rule:nonzero;stroke:none"
         id="path74" />
      <path
         d="m 5476.66,7641.47 c -26.55,11.48 -52.52,25.6 -72.73,46.27 -1.99,2.04 -3.93,4.15 -5.77,6.3 -24.62,28.72 -27.67,70.31 -7.3,102.15 0.09,0.14 0.18,0.27 0.28,0.43 29.2,45.3 78.59,74.13 129.6,91.59 90.33,30.95 191.11,30.46 281.13,-1.36 41.07,-14.5 81.09,-36.34 107.39,-71.05 26.32,-34.71 36.16,-84.23 15.72,-122.7 -18.47,-34.75 -56.74,-53.99 -94.05,-66.53 -114.59,-38.49 -243.32,-33.08 -354.27,14.9"
         style="fill:#040606;fill-opacity:0.1;fill-rule:nonzero;stroke:none"
         id="path76" />
      <path
         d="m 5194.6,7333.57 c -26.1,5.04 -53.13,7.78 -79.18,2.58 -2.57,-0.51 -5.13,-1.12 -7.65,-1.79 -33.56,-9.03 -57.44,-39.01 -58.49,-73.73 0,-0.15 0,-0.3 -0.01,-0.47 -1.32,-49.52 21.21,-96.99 50.87,-136.69 52.51,-70.31 129.24,-122.18 214.05,-144.7 38.68,-10.27 80.38,-14.45 118.33,-1.74 37.95,12.69 71.09,45.18 75.52,84.96 4.01,35.95 -15.06,70.38 -36.87,99.24 -67.02,88.61 -167.51,151.22 -276.57,172.34"
         style="fill:#040606;fill-opacity:0.1;fill-rule:nonzero;stroke:none"
         id="path78" />
      <path
         d="m 5457.89,7542.59 c -28.9,-0.95 -58.24,-4.58 -84.62,-16.4 -2.6,-1.17 -5.18,-2.42 -7.68,-3.75 -33.43,-17.7 -51.5,-55.28 -44.22,-92.36 0.04,-0.17 0.07,-0.33 0.1,-0.51 10.57,-52.85 45.96,-97.77 87.02,-132.71 72.72,-61.89 166.67,-98.36 262.09,-101.74 43.52,-1.56 88.76,4.1 125.95,26.76 37.2,22.65 64.51,65.13 59.59,108.41 -4.46,39.1 -33.01,71.02 -63.13,96.36 -92.53,77.8 -214.28,119.93 -335.1,115.94"
         style="fill:#040606;fill-opacity:0.1;fill-rule:nonzero;stroke:none"
         id="path80" />
      <path
         d="m 6193.69,8514.75 c -68.53,9.42 -134.87,58.15 -147.83,126.1 -17.06,89.52 59.39,168.11 52.93,265.73 -6.46,97.61 -92.59,165.44 -87.48,256.43 3.9,69.06 63.24,126.11 129.93,144.47 66.69,18.35 138.32,4.59 203.18,-19.46 116.28,-43.13 249.8,-146.76 316.98,-250.77 35.96,-55.65 40.62,-126.18 12.32,-186.09 -52.89,-111.95 -171.6,-232.28 -281.19,-290.35 -61.12,-32.39 -130.31,-55.46 -198.84,-46.06"
         style="fill:#040606;fill-opacity:0.1;fill-rule:nonzero;stroke:none"
         id="path82" />
      <path
         d="m 6609.69,9245.82 c -26.51,-1.84 -53.68,-1.29 -78.91,7.03 -2.48,0.82 -4.95,1.73 -7.38,2.71 -32.22,13.03 -52.28,45.68 -49.11,80.27 0.01,0.15 0.03,0.3 0.04,0.47 4.69,49.31 32.81,93.71 67.06,129.52 60.65,63.42 143.1,105.61 230.01,117.68 39.64,5.52 81.54,4.61 117.67,-12.61 36.13,-17.2 65.09,-53.46 64.67,-93.49 -0.38,-36.17 -23.48,-68.03 -48.63,-94.03 -77.26,-79.84 -184.61,-129.81 -295.42,-137.55"
         style="fill:#040606;fill-opacity:0.1;fill-rule:nonzero;stroke:none"
         id="path84" />
      <path
         d="m 6845.7,9006.42 c -28.57,4.45 -57.25,11.61 -82.01,26.54 -2.43,1.47 -4.84,3.03 -7.16,4.65 -31.04,21.62 -44.43,61.12 -32.7,97.05 0.05,0.16 0.1,0.31 0.16,0.48 16.9,51.19 57.47,91.49 102.47,121.19 79.68,52.62 177.35,77.44 272.48,69.23 43.39,-3.74 87.61,-14.84 121.78,-41.84 34.18,-26.99 56.14,-72.46 46.01,-114.83 -9.16,-38.27 -41.38,-66.49 -74.35,-88 -101.27,-66.01 -227.23,-93.07 -346.68,-74.47"
         style="fill:#040606;fill-opacity:0.1;fill-rule:nonzero;stroke:none"
         id="path86" />
      <path
         d="m 6649.93,8637.59 c -26.52,-1.67 -53.38,-5.79 -77.29,-17.37 -2.36,-1.13 -4.68,-2.36 -6.96,-3.65 -30.22,-17.16 -45.81,-52.17 -38.11,-86.05 0.03,-0.14 0.07,-0.29 0.1,-0.45 11.15,-48.27 44.87,-88.57 83.54,-119.56 68.48,-54.88 155.77,-85.83 243.51,-86.35 40.02,-0.25 81.44,6.17 114.99,28 33.55,21.81 57.48,61.58 51.78,101.19 -5.14,35.81 -32.24,64.35 -60.59,86.81 -87.11,68.96 -200.1,104.36 -310.97,97.43"
         style="fill:#040606;fill-opacity:0.1;fill-rule:nonzero;stroke:none"
         id="path88" />
      <path
         d="m 6852.35,8906 c -27.74,-8.18 -55.23,-19.05 -77.8,-37.12 -2.22,-1.77 -4.4,-3.63 -6.49,-5.55 -27.92,-25.52 -35.99,-66.44 -19.63,-100.51 0.08,-0.15 0.14,-0.29 0.22,-0.46 23.5,-48.51 69.03,-83.11 117.54,-106.63 85.92,-41.66 186.02,-53.39 279.23,-32.72 42.52,9.42 84.9,26.24 115.21,57.51 30.33,31.26 46.1,79.23 30.48,119.89 -14.13,36.74 -49.78,60.47 -85.29,77.44 -109.09,52.09 -237.52,62.32 -353.47,28.15"
         style="fill:#040606;fill-opacity:0.1;fill-rule:nonzero;stroke:none"
         id="path90" />
      <path
         d="m 10246.9,4628.09 c -53.1,44.42 -83.3,120.97 -58.2,185.4 33.2,84.88 139.7,110.78 186.2,196.89 46.4,86.09 9.6,189.35 62.3,263.68 40,56.41 120.6,73.17 186.8,53.25 66.3,-19.93 119.6,-69.68 161.8,-124.54 75.5,-98.36 133.5,-257.14 135,-380.94 0.9,-66.26 -32.7,-128.46 -88.5,-164.14 -104.3,-66.68 -268.9,-105.45 -392.5,-96.35 -69,5.08 -139.9,22.33 -192.9,66.75"
         style="fill:#040606;fill-opacity:0.1;fill-rule:nonzero;stroke:none"
         id="path92" />
      <path
         d="m 10988,5025.96 c -23.5,12.54 -46.2,27.45 -63.1,47.92 -1.7,2.01 -3.3,4.1 -4.8,6.21 -20.4,28.17 -20,66.49 1.1,94.11 0.1,0.11 0.2,0.23 0.2,0.36 30.2,39.27 77.7,61.91 125.7,74.03 85.1,21.45 177.4,13.33 257.4,-22.67 36.5,-16.41 71.5,-39.46 92.9,-73.26 21.5,-33.78 26.7,-79.89 5.1,-113.56 -19.6,-30.43 -56.1,-45.13 -91.2,-53.77 -107.9,-26.52 -225.4,-11.76 -323.3,40.63"
         style="fill:#040606;fill-opacity:0.1;fill-rule:nonzero;stroke:none"
         id="path94" />
      <path
         d="m 11060.5,4697.7 c -21.8,18.97 -42.3,40.28 -55.3,66.09 -1.3,2.54 -2.5,5.14 -3.6,7.75 -14.8,34.82 -5.1,75.38 23.9,99.58 0.1,0.1 0.3,0.2 0.4,0.32 41.5,34.36 97.3,46.91 151.2,48.13 95.5,2.19 191.4,-28.74 267.6,-86.29 34.7,-26.23 66.3,-59.15 80.9,-100.19 14.6,-41.04 9,-91.22 -22.1,-121.71 -28.2,-27.54 -70.4,-34.31 -109.8,-34.99 -120.9,-2.04 -241.9,42.03 -333.2,121.31"
         style="fill:#040606;fill-opacity:0.1;fill-rule:nonzero;stroke:none"
         id="path96" />
      <path
         d="m 10698.6,4489.47 c -23.4,12.7 -48.3,23.49 -74.7,26.4 -2.6,0.29 -5.2,0.49 -7.9,0.61 -34.7,1.54 -66.5,-19.82 -78,-52.6 0,-0.14 -0.1,-0.29 -0.1,-0.44 -16.3,-46.81 -9.2,-98.87 7.1,-145.68 28.8,-82.89 86.3,-155.53 160.3,-202.63 33.8,-21.49 72.3,-38.08 112.3,-37.44 40,0.63 81.4,21.58 97.6,58.16 14.7,33.05 7,71.64 -5.1,105.74 -37.1,104.72 -114,194.79 -211.5,247.88"
         style="fill:#040606;fill-opacity:0.1;fill-rule:nonzero;stroke:none"
         id="path98" />
      <path
         d="m 11012.7,4609.12 c -27.8,7.83 -56.9,13.25 -85.6,9.95 -2.8,-0.33 -5.7,-0.74 -8.4,-1.25 -37.3,-6.77 -65.8,-37.13 -70.1,-74.68 0,-0.17 -0.1,-0.32 -0.1,-0.51 -5.9,-53.57 14.3,-107.09 42.9,-152.81 50.6,-80.97 129.1,-144.14 219,-176.21 41,-14.64 85.9,-22.92 128.2,-12.57 42.3,10.35 81.1,42.58 89.5,85.32 7.6,38.62 -10,77.68 -31,110.95 -64.7,102.12 -168,179.09 -284.4,211.81"
         style="fill:#040606;fill-opacity:0.1;fill-rule:nonzero;stroke:none"
         id="path100" />
      <path
         d="m 12008,5313.35 c -62.5,29.7 -111,96.21 -102.8,164.89 10.8,90.49 107.4,142.29 130.8,237.3 23.3,94.99 -38.3,185.69 -5.9,270.87 24.6,64.65 98.4,101.1 167.6,98.44 69.1,-2.67 133.2,-37.44 187.7,-79.97 97.8,-76.27 193.8,-215.42 226.4,-334.87 17.4,-63.92 0.6,-132.55 -44.5,-181.1 -84.3,-90.73 -233.8,-169.54 -355.8,-191.77 -68.1,-12.39 -141,-13.47 -203.5,16.21"
         style="fill:#040606;fill-opacity:0.1;fill-rule:nonzero;stroke:none"
         id="path102" />
      <path
         d="m 12625.5,5884.46 c -25.8,6.26 -51.5,14.99 -73,30.55 -2.2,1.53 -4.2,3.15 -6.3,4.81 -26.7,22.16 -36,59.35 -22.5,91.37 0,0.14 0.1,0.28 0.2,0.43 19.3,45.59 59.6,79.41 103,103.19 77,42.12 168.4,57.4 254.9,42.64 39.4,-6.73 79.1,-20.26 108.3,-47.6 29.3,-27.31 45.9,-70.64 33.4,-108.66 -11.3,-34.36 -43,-57.75 -74.8,-74.93 -97.8,-52.74 -215.2,-67.93 -323.2,-41.8"
         style="fill:#040606;fill-opacity:0.1;fill-rule:nonzero;stroke:none"
         id="path104" />
      <path
         d="m 12778.1,5584.91 c -25.9,12.88 -51,28.37 -70.1,50.09 -1.9,2.14 -3.7,4.35 -5.4,6.6 -23.1,29.99 -23.9,71.68 -1.9,102.39 0.1,0.13 0.2,0.26 0.3,0.41 31.6,43.68 82.5,69.83 134.3,84.54 91.9,26.07 192.5,20.2 280.7,-16.39 40.2,-16.67 79,-40.62 103.4,-76.69 24.5,-36.06 31.6,-86.04 9.2,-123.37 -20.3,-33.71 -59.6,-50.87 -97.5,-61.4 -116.5,-32.31 -244.7,-20.02 -353,33.82"
         style="fill:#040606;fill-opacity:0.1;fill-rule:nonzero;stroke:none"
         id="path106" />
      <path
         d="m 12480,5292.52 c -25.8,6.43 -52.6,10.61 -78.9,6.81 -2.6,-0.37 -5.2,-0.84 -7.7,-1.38 -34,-7.22 -59.5,-35.88 -62.4,-70.5 0,-0.15 0,-0.3 0,-0.46 -4,-49.38 16,-97.99 43.5,-139.22 48.7,-73.01 122.5,-128.91 206,-155.93 38.1,-12.33 79.5,-18.73 118.1,-8.07 38.5,10.65 73.4,41.32 79.9,80.81 5.9,35.68 -11.3,71.08 -31.5,101.06 -62.2,92.07 -159.2,159.97 -267,186.88"
         style="fill:#040606;fill-opacity:0.1;fill-rule:nonzero;stroke:none"
         id="path108" />
      <path
         d="m 12754.1,5487.17 c -28.9,0.59 -58.4,-1.46 -85.4,-11.85 -2.6,-1.03 -5.3,-2.14 -7.8,-3.34 -34.4,-15.88 -54.4,-52.44 -49.1,-89.86 0,-0.18 0,-0.33 0,-0.51 7.8,-53.35 40.7,-100.1 79.9,-137.18 69.3,-65.68 161.1,-107.13 256.2,-115.6 43.4,-3.88 88.9,-0.65 127.2,19.99 38.4,20.63 67.9,61.58 65.3,105.07 -2.3,39.28 -29.1,72.68 -57.9,99.6 -88.2,82.63 -207.5,131.21 -328.4,133.68"
         style="fill:#040606;fill-opacity:0.1;fill-rule:nonzero;stroke:none"
         id="path110" />
      <path
         d="m 12754.1,3587 c -63.6,27.2 -114.7,91.8 -109.2,160.7 7.2,90.9 101.7,146.5 121.2,242.3 19.6,95.87 -45.5,184.06 -16.5,270.46 22,65.57 94.3,104.91 163.5,104.99 69.1,0.07 134.6,-32.14 190.8,-72.48 100.7,-72.34 202.1,-207.58 239.4,-325.67 19.9,-63.2 5.8,-132.4 -37.3,-182.7 -80.6,-94 -226.9,-178.7 -348,-205.7 -67.5,-15.1 -140.3,-19 -203.9,8.1"
         style="fill:#040606;fill-opacity:0.1;fill-rule:nonzero;stroke:none"
         id="path112" />
      <path
         d="m 13348.5,4182.15 c -26,5.23 -52.1,12.94 -74.2,27.64 -2.2,1.44 -4.3,2.97 -6.4,4.56 -27.6,21.08 -38.3,57.87 -26.1,90.4 0,0.14 0.1,0.28 0.1,0.43 17.6,46.33 56.4,81.71 98.9,107.19 75.3,45.14 166,64.02 253,52.7 39.7,-5.16 79.8,-17.11 110.1,-43.27 30.3,-26.14 48.7,-68.77 37.7,-107.26 -10,-34.78 -40.7,-59.41 -71.8,-77.83 -95.6,-56.57 -212.3,-76.4 -321.3,-54.56"
         style="fill:#040606;fill-opacity:0.1;fill-rule:nonzero;stroke:none"
         id="path114" />
      <path
         d="m 13512.9,3888.9 c -26.4,11.8 -52.2,26.3 -72.1,47.2 -2,2.1 -3.9,4.2 -5.7,6.4 -24.2,29.1 -26.7,70.71 -5.9,102.26 0.1,0.15 0.2,0.28 0.3,0.43 29.9,44.9 79.6,73.04 130.9,89.79 90.7,29.68 191.5,27.8 281.1,-5.27 40.8,-15.07 80.5,-37.46 106.4,-72.54 25.8,-35.06 34.9,-84.77 14,-122.87 -19,-34.5 -57.5,-53.2 -95,-65.3 -115.1,-36.8 -243.7,-29.6 -354,19.9"
         style="fill:#040606;fill-opacity:0.1;fill-rule:nonzero;stroke:none"
         id="path116" />
      <path
         d="m 13226.6,3584.9 c -26,5.4 -53,8.5 -79.2,3.7 -2.5,-0.5 -5.1,-1 -7.6,-1.7 -33.7,-8.6 -58,-38.2 -59.5,-72.9 0,-0.1 -0.1,-0.3 -0.1,-0.5 -2,-49.5 19.9,-97.2 49,-137.3 51.5,-71.1 127.5,-124 212,-147.7 38.6,-10.8 80.2,-15.6 118.3,-3.4 38.1,12.2 71.7,44.2 76.7,83.9 4.5,35.9 -14.1,70.6 -35.5,99.7 -65.8,89.6 -165.4,153.6 -274.1,176.2"
         style="fill:#040606;fill-opacity:0.1;fill-rule:nonzero;stroke:none"
         id="path118" />
      <path
         d="m 13492.7,3790.3 c -28.9,-0.6 -58.3,-3.8 -84.8,-15.3 -2.6,-1.1 -5.2,-2.3 -7.7,-3.6 -33.7,-17.2 -52.3,-54.6 -45.5,-91.7 0,-0.2 0,-0.4 0.1,-0.6 9.8,-52.9 44.6,-98.4 85.1,-133.9 71.9,-62.9 165.3,-100.6 260.7,-105.3 43.5,-2.2 88.8,2.8 126.3,25 37.5,22.1 65.4,64.2 61.1,107.6 -3.9,39.1 -32,71.4 -61.8,97.2 -91.4,79.1 -212.6,122.9 -333.5,120.6"
         style="fill:#040606;fill-opacity:0.1;fill-rule:nonzero;stroke:none"
         id="path120" />
      <path
         d="m 14242,4752.11 c -68.4,10.37 -134.1,60.02 -146.1,128.14 -15.8,89.75 61.7,167.27 56.6,264.97 -5.1,97.69 -90.3,166.71 -83.9,257.62 4.9,69 65,125.22 131.9,142.65 67,17.43 138.4,2.67 202.9,-22.28 115.7,-44.74 247.8,-150.22 313.5,-255.14 35.2,-56.16 38.9,-126.74 9.7,-186.25 -54.4,-111.21 -174.8,-229.87 -285.2,-286.42 -61.5,-31.53 -131,-53.65 -199.4,-43.29"
         style="fill:#040606;fill-opacity:0.1;fill-rule:nonzero;stroke:none"
         id="path122" />
      <path
         d="m 14668.1,5477.33 c -26.6,-1.47 -53.7,-0.54 -78.8,8.13 -2.5,0.85 -4.9,1.8 -7.4,2.81 -32,13.47 -51.6,46.4 -48,80.95 0.1,0.15 0.1,0.3 0.1,0.46 5.4,49.24 34.1,93.24 68.8,128.57 61.6,62.58 144.6,103.62 231.7,114.49 39.7,4.96 81.6,3.47 117.5,-14.25 35.8,-17.7 64.3,-54.37 63.3,-94.38 -0.9,-36.16 -24.4,-67.7 -49.9,-93.35 -78.4,-78.75 -186.4,-127.23 -297.3,-133.43"
         style="fill:#040606;fill-opacity:0.1;fill-rule:nonzero;stroke:none"
         id="path124" />
      <path
         d="m 14900.8,5234.68 c -28.6,4.85 -57.1,12.4 -81.7,27.68 -2.4,1.5 -4.8,3.09 -7.1,4.74 -30.7,22.05 -43.6,61.73 -31.3,97.49 0,0.16 0.1,0.31 0.1,0.49 17.6,50.94 58.8,90.67 104.2,119.75 80.4,51.51 178.4,74.97 273.4,65.43 43.3,-4.33 87.4,-16.04 121.2,-43.52 33.8,-27.46 55.1,-73.23 44.4,-115.45 -9.7,-38.15 -42.3,-65.92 -75.6,-86.97 -102.1,-64.59 -228.5,-89.9 -347.6,-69.64"
         style="fill:#040606;fill-opacity:0.1;fill-rule:nonzero;stroke:none"
         id="path126" />
      <path
         d="m 14699.9,4868.6 c -26.6,-1.3 -53.5,-5.05 -77.6,-16.29 -2.3,-1.11 -4.7,-2.3 -7,-3.56 -30.4,-16.74 -46.5,-51.53 -39.3,-85.51 0.1,-0.14 0.1,-0.29 0.1,-0.45 10.5,-48.42 43.7,-89.19 81.9,-120.71 67.7,-55.82 154.6,-87.99 242.3,-89.73 40,-0.8 81.5,5.05 115.4,26.41 33.8,21.34 58.3,60.77 53.1,100.46 -4.6,35.87 -31.3,64.79 -59.3,87.64 -86.2,70.17 -198.7,107.13 -309.6,101.74"
         style="fill:#040606;fill-opacity:0.1;fill-rule:nonzero;stroke:none"
         id="path128" />
      <path
         d="m 14906,5134.17 c -27.8,-7.79 -55.5,-18.28 -78.3,-36.03 -2.3,-1.75 -4.5,-3.58 -6.6,-5.46 -28.2,-25.13 -36.9,-65.93 -21,-100.23 0.1,-0.15 0.1,-0.29 0.2,-0.46 22.8,-48.83 67.9,-84.07 116.1,-108.25 85.3,-42.85 185.2,-55.98 278.7,-36.6 42.7,8.82 85.3,25.06 116,55.91 30.8,30.83 47.2,78.58 32.2,119.45 -13.7,36.93 -49,61.15 -84.3,78.62 -108.3,53.6 -236.6,65.61 -353,33.05"
         style="fill:#040606;fill-opacity:0.1;fill-rule:nonzero;stroke:none"
         id="path130" />
      <path
         d="m 15823.5,3207.7 c -68.9,-5.6 -144.2,27.7 -171.5,91.3 -35.9,83.7 21.8,176.9 -5.5,270.9 -27.3,93.9 -126,141.6 -140.6,231.6 -11.1,68.2 34.6,136.7 95.8,169 61.1,32.3 134.1,34.28 202.6,24.7 122.8,-17 275.5,-89.5 363.5,-176.6 47.1,-46.6 66.8,-114.5 52.1,-179.1 -27.6,-120.7 -117.6,-263.8 -212.1,-344.1 -52.7,-44.7 -115.3,-82.2 -184.3,-87.7"
         style="fill:#040606;fill-opacity:0.1;fill-rule:nonzero;stroke:none"
         id="path132" />
      <path
         d="m 16072.4,4011.13 c -25.5,-7.5 -52.1,-12.83 -78.6,-10.11 -2.6,0.26 -5.2,0.62 -7.8,1.05 -34.2,5.79 -60.8,33.36 -65.2,67.82 0,0.15 0,0.3 0,0.46 -6.1,49.17 11.8,98.58 37.6,140.92 45.5,75 117,133.94 199.3,164.44 37.5,13.91 78.6,22.04 117.6,13.01 39,-9.02 75.1,-38.21 83.3,-77.38 7.4,-35.41 -8.3,-71.5 -27.3,-102.3 -58.3,-94.59 -152.3,-166.5 -258.9,-197.91"
         style="fill:#040606;fill-opacity:0.1;fill-rule:nonzero;stroke:none"
         id="path134" />
      <path
         d="m 16354.4,3828.1 c -28.8,-1.8 -58.4,-0.9 -85.8,8.3 -2.7,0.9 -5.4,1.9 -8,3 -34.9,14.4 -56.5,50.1 -52.8,87.7 0,0.2 0,0.4 0.1,0.6 5.4,53.6 36.4,101.66 73.9,140.35 66.5,68.53 156.6,113.79 251.2,126.25 43.2,5.69 88.8,4.37 128,-14.64 39.2,-19 70.4,-58.68 69.6,-102.24 -0.7,-39.35 -26.1,-73.84 -53.7,-101.92 -84.6,-86.3 -201.8,-139.8 -322.5,-147.4"
         style="fill:#040606;fill-opacity:0.1;fill-rule:nonzero;stroke:none"
         id="path136" />
      <path
         d="m 16242.6,3425.8 c -25.5,-7.3 -50.9,-17.1 -71.7,-33.6 -2.1,-1.6 -4.1,-3.3 -6,-5 -25.9,-23.3 -33.5,-60.9 -18.7,-92.3 0,-0.1 0.1,-0.2 0.2,-0.4 21.2,-44.7 62.8,-76.8 107.3,-98.8 78.7,-38.8 170.6,-50.3 256.4,-31.9 39.1,8.4 78.2,23.6 106.2,52.1 28.1,28.5 42.9,72.5 28.8,110 -12.7,33.8 -45.3,55.9 -77.8,71.7 -99.9,48.6 -217.9,58.8 -324.7,28.2"
         style="fill:#040606;fill-opacity:0.1;fill-rule:nonzero;stroke:none"
         id="path138" />
      <path
         d="m 16382.5,3731.5 c -25.3,-14 -49.8,-30.5 -68,-53 -1.8,-2.2 -3.5,-4.5 -5.1,-6.8 -21.8,-30.9 -20.9,-72.6 2.5,-102.4 0.1,-0.1 0.2,-0.2 0.3,-0.4 33.4,-42.3 85.3,-66.3 137.7,-78.8 92.9,-22.2 193.2,-12.1 279.7,28.1 39.5,18.4 77.3,43.9 100.2,81 22.9,37 27.9,87.3 3.9,123.6 -21.7,32.9 -61.6,48.4 -99.9,57.3 -117.8,27.4 -245.4,9.7 -351.3,-48.6"
         style="fill:#040606;fill-opacity:0.1;fill-rule:nonzero;stroke:none"
         id="path140" />
      <path
         d="m 16597.6,4931.6 c -65.4,-22.68 -146.6,-9.32 -189,45.37 -55.7,72.05 -23.2,176.77 -73.3,260.85 -50,84.07 -157.5,105.47 -194.2,188.89 -27.8,63.32 -0.8,141.08 50.3,187.68 51.1,46.6 121.2,66.81 189.9,74.78 123.2,14.27 289.2,-17.56 396.3,-79.8 57.2,-33.31 93.4,-94.05 95.3,-160.28 3.6,-123.77 -47.6,-284.83 -119,-386.28 -39.8,-56.58 -91,-108.52 -156.3,-131.21"
         style="fill:#040606;fill-opacity:0.1;fill-rule:nonzero;stroke:none"
         id="path142" />
      <path
         d="m 16636.9,5771.82 c -22.8,-13.66 -47.3,-25.48 -73.5,-29.5 -2.6,-0.4 -5.2,-0.71 -7.8,-0.94 -34.6,-2.99 -67.3,17.01 -80.2,49.28 0,0.14 -0.1,0.28 -0.2,0.43 -18.1,46.09 -13.2,98.41 1.1,145.85 25.3,84.03 79.6,159.01 151.6,209.18 32.9,22.89 70.6,41.08 110.6,42.11 40,1.06 82.3,-18.14 100.1,-54 16,-32.42 9.9,-71.29 -0.7,-105.87 -32.7,-106.19 -105.7,-199.4 -201,-256.54"
         style="fill:#040606;fill-opacity:0.1;fill-rule:nonzero;stroke:none"
         id="path144" />
      <path
         d="m 16955.8,5665.45 c -27.5,-8.99 -56.3,-15.62 -85.1,-13.53 -2.9,0.21 -5.7,0.51 -8.5,0.9 -37.5,5.2 -67.3,34.33 -73.2,71.67 0,0.17 0,0.33 0,0.51 -8.2,53.28 9.7,107.6 36.3,154.47 47.2,83.02 123,149.43 211.5,185.24 40.4,16.35 84.8,26.51 127.5,17.93 42.7,-8.56 82.9,-39.13 93.1,-81.49 9.2,-38.27 -6.7,-78.03 -26.4,-112.14 -60.3,-104.75 -160.3,-185.98 -275.2,-223.56"
         style="fill:#040606;fill-opacity:0.1;fill-rule:nonzero;stroke:none"
         id="path146" />
      <path
         d="m 16948.5,5247.95 c -22.8,-13.52 -44.9,-29.37 -61,-50.53 -1.6,-2.08 -3.1,-4.23 -4.5,-6.41 -19.2,-29 -17.2,-67.27 5,-93.97 0.1,-0.12 0.2,-0.23 0.3,-0.36 31.8,-37.97 80.2,-58.6 128.7,-68.69 85.9,-17.87 177.7,-5.88 256.2,33.44 35.8,17.93 69.8,42.42 89.8,77.09 20,34.65 23.3,80.95 0.2,113.68 -20.8,29.58 -57.9,42.73 -93.3,49.9 -108.9,21.97 -225.7,2.29 -321.4,-54.15"
         style="fill:#040606;fill-opacity:0.1;fill-rule:nonzero;stroke:none"
         id="path148" />
      <path
         d="m 17007.3,5578.95 c -21.1,-19.86 -40.6,-42.01 -52.6,-68.35 -1.1,-2.59 -2.2,-5.24 -3.2,-7.89 -13.3,-35.41 -2,-75.53 28,-98.49 0.2,-0.1 0.3,-0.19 0.5,-0.3 42.9,-32.59 99.2,-42.79 153.1,-41.75 95.4,1.82 190,36.74 263.7,97.43 33.6,27.67 63.8,61.88 76.6,103.5 12.9,41.61 5.2,91.51 -27.2,120.68 -29.2,26.33 -71.8,31.32 -111.1,30.35 -120.9,-3.03 -240,-52.14 -327.8,-135.18"
         style="fill:#040606;fill-opacity:0.1;fill-rule:nonzero;stroke:none"
         id="path150" />
      <path
         d="m 18340.4,4225.02 c -64.4,-25.25 -146.1,-15.11 -190.6,37.85 -58.6,69.79 -30.2,175.71 -83.5,257.75 -53.3,82.02 -161.6,99.15 -201.6,181.06 -30.3,62.16 -6.4,140.93 42.9,189.52 49.2,48.58 118.4,71.55 186.8,82.23 122.5,19.14 289.6,-6.09 399,-64.05 58.6,-31.01 97.1,-90.28 101.7,-156.38 8.5,-123.53 -36.4,-286.5 -103.6,-390.69 -37.6,-58.11 -86.7,-112.04 -151.1,-137.29"
         style="fill:#040606;fill-opacity:0.1;fill-rule:nonzero;stroke:none"
         id="path152" />
      <path
         d="m 18346.5,5066.14 c -22.3,-14.55 -46.2,-27.34 -72.3,-32.39 -2.6,-0.5 -5.2,-0.92 -7.8,-1.25 -34.5,-4.36 -67.9,14.34 -82,46.07 -0.1,0.14 -0.2,0.28 -0.2,0.43 -20,45.32 -17.2,97.8 -4.8,145.77 22,84.97 73.3,162.04 143.3,215.02 31.9,24.17 68.9,43.84 108.8,46.46 40,2.63 83,-14.88 102.1,-50.01 17.4,-31.75 12.8,-70.84 3.5,-105.81 -28.4,-107.4 -97.7,-203.43 -190.6,-264.29"
         style="fill:#040606;fill-opacity:0.1;fill-rule:nonzero;stroke:none"
         id="path154" />
      <path
         d="m 18669.3,4972.47 c -27.1,-10.06 -55.6,-17.83 -84.5,-16.88 -2.8,0.09 -5.7,0.27 -8.5,0.56 -37.7,3.71 -68.6,31.64 -75.9,68.71 -0.1,0.18 -0.1,0.33 -0.1,0.51 -10.3,52.92 5.4,107.9 30.2,155.79 43.8,84.83 117,154.18 204,193.47 39.7,17.93 83.7,29.84 126.7,22.96 43,-6.86 84.4,-35.83 96.2,-77.74 10.7,-37.88 -3.6,-78.24 -21.9,-113.1 -56.1,-107.06 -152.8,-192.18 -266.2,-234.28"
         style="fill:#040606;fill-opacity:0.1;fill-rule:nonzero;stroke:none"
         id="path156" />
      <path
         d="m 18678.6,4555.01 c -22.3,-14.41 -43.8,-31.13 -59,-52.9 -1.5,-2.15 -2.9,-4.35 -4.3,-6.59 -18,-29.73 -14.5,-67.89 8.8,-93.7 0.1,-0.11 0.2,-0.22 0.3,-0.34 33.3,-36.68 82.4,-55.39 131.3,-63.54 86.5,-14.46 177.8,1.15 254.7,43.54 35,19.34 68,45.16 86.6,80.59 18.7,35.42 20.1,81.81 -4.2,113.6 -22,28.73 -59.6,40.41 -95.3,46.16 -109.7,17.65 -225.5,-6.64 -318.9,-66.82"
         style="fill:#040606;fill-opacity:0.1;fill-rule:nonzero;stroke:none"
         id="path158" />
      <path
         d="m 18724.2,4888.08 c -20.2,-20.68 -38.9,-43.59 -49.8,-70.38 -1.1,-2.64 -2.1,-5.32 -3,-8.02 -11.9,-35.9 1.1,-75.54 32,-97.29 0.1,-0.09 0.3,-0.19 0.4,-0.29 44.2,-30.86 100.8,-38.83 154.7,-35.66 95.3,5.6 188.4,44.24 259.6,107.8 32.5,28.98 61.3,64.36 72.5,106.45 11.2,42.08 1.5,91.64 -32,119.5 -30.2,25.16 -72.9,28.46 -112.2,25.93 -120.7,-7.81 -237.7,-61.59 -322.2,-148.04"
         style="fill:#040606;fill-opacity:0.1;fill-rule:nonzero;stroke:none"
         id="path160" />
      <path
         d="m 18583.2,6099.11 c -56,-40.59 -137.7,-51.28 -194,-11.17 -74.3,52.85 -73.4,162.49 -145.6,228.52 -72.2,66.03 -181.3,55.44 -240.5,124.7 -45,52.56 -41.6,134.81 -6.1,194.2 35.5,59.39 96.7,98.99 160.2,126.48 113.8,49.28 281.9,66.79 402.4,38.14 64.4,-15.33 116.6,-63.04 137.6,-125.88 39.2,-117.44 36.7,-286.45 -2.3,-404.19 -21.7,-65.66 -55.7,-130.19 -111.7,-170.8"
         style="fill:#040606;fill-opacity:0.1;fill-rule:nonzero;stroke:none"
         id="path162" />
      <path
         d="m 18378,6914.84 c -17.9,-19.67 -37.9,-38.06 -61.9,-49.5 -2.4,-1.13 -4.8,-2.18 -7.2,-3.15 -32.3,-12.87 -69.4,-3.17 -91,24.01 -0.1,0.12 -0.2,0.24 -0.3,0.36 -30.7,38.86 -41.1,90.37 -41.1,139.92 -0.1,87.76 30.3,175.26 84.7,244.09 24.8,31.4 55.7,59.73 93.7,72.28 38,12.57 84,6.41 111.4,-22.79 24.7,-26.38 30.1,-65.38 29.9,-101.55 -0.6,-111.09 -43.6,-221.43 -118.2,-303.67"
         style="fill:#040606;fill-opacity:0.1;fill-rule:nonzero;stroke:none"
         id="path164" />
      <path
         d="m 18714,6905.19 c -23.7,-16.55 -49.4,-31.23 -77.6,-37.56 -2.8,-0.62 -5.6,-1.16 -8.4,-1.6 -37.4,-5.85 -74.3,13.41 -90.7,47.47 -0.1,0.16 -0.2,0.3 -0.2,0.47 -23.2,48.65 -21.8,105.82 -9.9,158.39 21.2,93.11 74.6,178.6 148.9,238.47 34,27.31 73.6,49.88 116.9,54.01 43.4,4.15 90.7,-13.5 112.7,-51.1 19.8,-33.99 16.1,-76.65 7.2,-114.99 -27.5,-117.71 -99.8,-224.38 -198.9,-293.56"
         style="fill:#040606;fill-opacity:0.1;fill-rule:nonzero;stroke:none"
         id="path166" />
      <path
         d="m 18827.7,6503.4 c -18,-19.55 -34.5,-41.11 -43.8,-66 -0.9,-2.45 -1.7,-4.95 -2.5,-7.46 -10,-33.29 3,-69.36 32,-88.5 0.1,-0.08 0.2,-0.16 0.4,-0.25 41.4,-27.15 93.6,-32.94 143,-28.57 87.4,7.73 171.9,45.75 235.6,106.06 29.1,27.51 54.5,60.79 63.7,99.76 9.1,38.95 -1.1,84.22 -32.6,108.9 -28.5,22.3 -67.8,24.17 -103.8,20.78 -110.6,-10.44 -216.7,-63.03 -292,-144.72"
         style="fill:#040606;fill-opacity:0.1;fill-rule:nonzero;stroke:none"
         id="path168" />
      <path
         d="m 18788.3,6837.25 c -14.4,-25.09 -26.8,-51.95 -30.6,-80.61 -0.3,-2.82 -0.6,-5.67 -0.8,-8.5 -2.5,-37.74 19.9,-72.87 55.3,-86.17 0.2,-0.05 0.3,-0.11 0.5,-0.17 50.5,-18.79 107.3,-12.29 158.6,4.28 90.9,29.34 171.3,90.1 224.3,169.5 24.2,36.21 43.2,77.68 43.5,121.23 0.3,43.55 -21.5,89.1 -60.9,107.66 -35.6,16.76 -77.8,9.24 -115.2,-3.06 -114.8,-37.83 -214.6,-119.27 -274.7,-224.16"
         style="fill:#040606;fill-opacity:0.1;fill-rule:nonzero;stroke:none"
         id="path170" />
      <path
         d="m 20157.3,5619.42 c -60.1,-34.24 -142.4,-35.96 -194,10.06 -68,60.64 -55.2,169.53 -119.8,243.05 -64.5,73.5 -174.1,74.89 -225.5,150.19 -38.9,57.16 -26.6,138.55 15.2,193.71 41.7,55.16 106.9,87.85 173,108.24 118.5,36.57 287.5,35.63 404.2,-5.99 62.4,-22.27 109,-75.38 123,-140.15 26.2,-121.02 5.3,-288.74 -46.3,-401.52 -28.8,-62.9 -69.7,-123.33 -129.8,-157.59"
         style="fill:#040606;fill-opacity:0.1;fill-rule:nonzero;stroke:none"
         id="path172" />
      <path
         d="m 20042.4,6452.67 c -19.9,-17.6 -41.8,-33.7 -66.9,-42.45 -2.5,-0.87 -5,-1.65 -7.5,-2.35 -33.5,-9.27 -69.3,4.42 -87.9,33.79 0,0.13 -0.1,0.26 -0.2,0.4 -26.3,41.98 -31,94.32 -25.6,143.57 9.5,87.25 49.2,170.9 110.8,233.39 28.1,28.51 61.9,53.29 101,61.62 39.2,8.36 84.2,-2.79 108.3,-34.8 21.7,-28.93 22.7,-68.28 18.6,-104.21 -12.7,-110.37 -67.4,-215.36 -150.6,-288.96"
         style="fill:#040606;fill-opacity:0.1;fill-rule:nonzero;stroke:none"
         id="path174" />
      <path
         d="m 20375.3,6406.41 c -25.3,-13.86 -52.4,-25.65 -81.2,-28.87 -2.8,-0.32 -5.7,-0.54 -8.5,-0.67 -37.8,-1.74 -72.4,21.44 -85,57.08 -0.1,0.17 -0.1,0.32 -0.2,0.49 -17.7,50.9 -10.1,107.57 7.5,158.52 31.2,90.25 93.6,169.4 174.1,220.79 36.7,23.45 78.5,41.57 122.1,40.94 43.5,-0.6 88.6,-23.31 106.4,-63.09 16,-35.95 7.6,-77.95 -5.4,-115.08 -40.2,-114.01 -123.7,-212.16 -229.8,-270.11"
         style="fill:#040606;fill-opacity:0.1;fill-rule:nonzero;stroke:none"
         id="path176" />
      <path
         d="m 20444.5,5994.61 c -20,-17.47 -38.8,-37.09 -50.7,-60.83 -1.2,-2.34 -2.3,-4.73 -3.3,-7.13 -13.5,-32.01 -4.6,-69.28 22.1,-91.47 0.2,-0.09 0.3,-0.19 0.4,-0.29 38.2,-31.51 89.5,-42.96 139,-44.01 87.8,-1.85 175.9,26.72 245.8,79.72 31.9,24.17 60.9,54.47 74.2,92.22 13.3,37.72 8.1,83.84 -20.5,111.8 -25.9,25.28 -64.8,31.43 -100.9,31.99 -111.1,1.69 -222.3,-39.01 -306.1,-112"
         style="fill:#040606;fill-opacity:0.1;fill-rule:nonzero;stroke:none"
         id="path178" />
      <path
         d="m 20441.7,6330.77 c -17,-23.37 -32.2,-48.72 -39.1,-76.8 -0.7,-2.76 -1.3,-5.56 -1.8,-8.36 -6.6,-37.24 11.9,-74.61 45.7,-91.68 0.1,-0.08 0.3,-0.15 0.4,-0.23 48.2,-24.19 105.4,-23.92 158.2,-13.05 93.5,19.25 180.1,70.87 241.4,144.01 28,33.36 51.4,72.5 56.4,115.77 5.1,43.25 -11.6,90.91 -48.8,113.67 -33.5,20.54 -76.3,17.66 -114.8,9.51 -118.2,-25.07 -226.4,-95.13 -297.6,-192.84"
         style="fill:#040606;fill-opacity:0.1;fill-rule:nonzero;stroke:none"
         id="path180" />
      <path
         d="m 20128.1,7508.95 c -49.6,-48.23 -128.9,-70.55 -190.4,-38.96 -81.1,41.63 -96,150.25 -176.9,205.22 -80.9,54.96 -187.4,28.79 -256,88.81 -52,45.55 -60.5,127.43 -33.9,191.31 26.5,63.87 81.4,111.87 140.3,148.2 105.5,65.13 269.4,106.63 392.7,95.6 66,-5.9 124.5,-45.61 154.3,-104.78 55.7,-110.58 77.5,-278.19 55.9,-400.31 -12.1,-68.11 -36.5,-136.85 -86,-185.09"
         style="fill:#040606;fill-opacity:0.1;fill-rule:nonzero;stroke:none"
         id="path182" />
      <path
         d="m 19807.7,8286.69 c -14.9,-22.04 -32,-43.11 -54.1,-57.88 -2.2,-1.46 -4.4,-2.84 -6.7,-4.16 -30.1,-17.38 -68.2,-13.11 -93.5,10.67 -0.1,0.11 -0.2,0.21 -0.3,0.32 -36,34.04 -53.7,83.52 -60.9,132.55 -12.7,86.84 4.8,177.79 48.8,253.74 20,34.64 46.5,67.11 82.3,85 35.8,17.91 82.2,18.42 113.5,-6.54 28.3,-22.55 39.2,-60.37 44.2,-96.19 15.4,-110.02 -11.2,-225.39 -73.3,-317.51"
         style="fill:#040606;fill-opacity:0.1;fill-rule:nonzero;stroke:none"
         id="path184" />
      <path
         d="m 20141.6,8325.46 c -21.1,-19.79 -44.4,-38 -71.4,-48.33 -2.6,-1.01 -5.3,-1.95 -8,-2.79 -36.2,-11.16 -75.6,2.58 -96.7,33.93 -0.1,0.15 -0.1,0.28 -0.2,0.43 -30,44.81 -36.8,101.59 -32.5,155.34 7.5,95.18 48,187.46 113,257.4 29.7,31.91 65.6,59.94 107.9,70.26 42.3,10.34 91.7,-0.33 118.9,-34.38 24.5,-30.77 26.9,-73.53 23.6,-112.75 -10.3,-120.45 -66.4,-236.4 -154.6,-319.11"
         style="fill:#040606;fill-opacity:0.1;fill-rule:nonzero;stroke:none"
         id="path186" />
      <path
         d="m 20311.9,7944.2 c -15,-21.94 -28.2,-45.65 -33.8,-71.62 -0.6,-2.56 -1.1,-5.15 -1.4,-7.73 -5.1,-34.39 12.9,-68.21 44.3,-82.99 0.2,-0.06 0.3,-0.12 0.5,-0.19 44.9,-20.91 97.4,-19.13 145.6,-7.71 85.4,20.22 163.5,69.99 217.9,138.84 24.8,31.4 45.2,68 48.7,107.88 3.4,39.86 -13.2,83.2 -47.9,103.08 -31.4,17.97 -70.6,14.17 -105.7,5.64 -108,-26.24 -205.4,-93.54 -268.2,-185.2"
         style="fill:#040606;fill-opacity:0.1;fill-rule:nonzero;stroke:none"
         id="path188" />
      <path
         d="m 20224.9,8268.91 c -10.7,-26.9 -19,-55.26 -18.6,-84.17 0,-2.84 0.1,-5.71 0.3,-8.53 3,-37.71 30.3,-69.25 67.2,-77.32 0.2,-0.03 0.3,-0.06 0.5,-0.1 52.7,-11.33 108,3.28 156.4,27.06 85.7,42.09 156.5,113.79 197.6,199.99 18.7,39.31 31.5,83.07 25.5,126.21 -6,43.14 -34.1,85.08 -75.7,97.79 -37.7,11.46 -78.3,-2.04 -113.6,-19.6 -108.2,-53.95 -195.2,-148.9 -239.6,-261.33"
         style="fill:#040606;fill-opacity:0.1;fill-rule:nonzero;stroke:none"
         id="path190" />
      <path
         d="m 21514.3,6846.23 c -65.6,-21.86 -146.7,-7.48 -188.4,47.73 -54.9,72.74 -21,177.04 -70,261.74 -49,84.69 -156.2,107.44 -191.9,191.31 -27,63.66 1,141.07 52.7,187.03 51.7,45.96 122,65.29 190.8,72.4 123.4,12.74 289,-21.17 395.2,-84.74 56.9,-34.02 92.2,-95.21 93.4,-161.46 2,-123.8 -51.2,-284.21 -123.8,-384.77 -40.5,-56.07 -92.4,-107.37 -158,-129.24"
         style="fill:#040606;fill-opacity:0.1;fill-rule:nonzero;stroke:none"
         id="path192" />
      <path
         d="m 21564.1,7685.9 c -23,-13.38 -47.6,-24.9 -73.9,-28.59 -2.6,-0.36 -5.2,-0.64 -7.8,-0.84 -34.7,-2.56 -67.1,17.86 -79.6,50.28 0,0.14 -0.1,0.29 -0.1,0.44 -17.6,46.3 -12,98.56 2.9,145.82 26.3,83.71 81.6,158.01 154.2,207.27 33.1,22.48 71.1,40.19 111.1,40.73 40,0.55 82.1,-19.17 99.4,-55.26 15.6,-32.61 9,-71.4 -2.1,-105.84 -34,-105.77 -108.1,-198.07 -204.1,-254.01"
         style="fill:#040606;fill-opacity:0.1;fill-rule:nonzero;stroke:none"
         id="path194" />
      <path
         d="m 22000,7984.6 v -353.5 c -36.8,-23.6 -76.6,-42.5 -118.4,-55.5 -27.5,-8.7 -56.4,-15 -85.2,-12.5 -2.9,0.2 -5.7,0.6 -8.5,1 -37.4,5.7 -66.9,35.2 -72.3,72.6 v 0.5 c -7.5,53.4 11.1,107.4 38.3,154 48.2,82.4 124.8,147.9 213.8,182.6 10.5,4.1 21.3,7.8 32.3,10.8"
         style="fill:#040606;fill-opacity:0.1;fill-rule:nonzero;stroke:none"
         id="path196" />
      <path
         d="m 22000,7207.9 v -279.1 c -21.9,1 -43.7,3.9 -65.1,8.6 -48.4,10.7 -96.5,31.9 -127.8,70.3 -0.1,0.1 -0.2,0.2 -0.3,0.3 -21.9,27 -23.4,65.3 -3.9,94.1 1.5,2.1 3,4.3 4.6,6.3 16.3,21 38.6,36.5 61.7,49.8 40.6,23.3 85,40 130.8,49.7"
         style="fill:#040606;fill-opacity:0.1;fill-rule:nonzero;stroke:none"
         id="path198" />
      <path
         d="m 22000,7540.7 v -266.6 c -35.4,5.6 -69.4,17.8 -97.5,39.6 -0.1,0.1 -0.2,0.2 -0.4,0.3 -29.7,23.4 -40.6,63.6 -26.8,98.9 1,2.6 2.1,5.2 3.4,7.8 12.2,26.2 32.1,48.1 53.3,67.7 21,19.4 43.8,36.9 68,52.3"
         style="fill:#040606;fill-opacity:0.1;fill-rule:nonzero;stroke:none"
         id="path200" />
      <path
         d="m 22000,9265.5 v -310.2 c -6.6,-30.4 -15.1,-59.3 -25.3,-85.4 -25.1,-64.4 -62.4,-127.1 -120.5,-164.7 -58,-37.7 -140.1,-44.1 -194.2,-1.1 -71.4,56.6 -64.9,166.1 -133.5,235.8 -68.7,69.7 -178.2,64.8 -233.8,137 -42.1,54.9 -34.4,136.8 4.1,194.3 38.5,57.4 101.7,93.8 166.5,118 116.3,43.2 285.1,52 403.9,17.1 63.5,-18.7 113.1,-69 130.8,-132.9 0.7,-2.6 1.4,-5.2 2,-7.9"
         style="fill:#040606;fill-opacity:0.1;fill-rule:nonzero;stroke:none"
         id="path202" />
      <path
         d="m 21691.8,9530.46 c -18.9,-18.72 -39.8,-36.04 -64.4,-46.22 -2.4,-1 -4.8,-1.92 -7.3,-2.77 -32.9,-11.17 -69.4,0.45 -89.6,28.71 -0.1,0.12 -0.2,0.25 -0.3,0.38 -28.7,40.41 -36.4,92.39 -33.8,141.88 4.5,87.64 39.4,173.43 97.3,239.34 26.4,30.07 58.7,56.75 97.3,67.31 38.6,10.57 84.2,2.02 110.1,-28.56 23.3,-27.64 26.6,-66.86 24.5,-102.97 -6.3,-110.92 -55,-218.87 -133.8,-297.1"
         style="fill:#040606;fill-opacity:0.1;fill-rule:nonzero;stroke:none"
         id="path204" />
      <path
         d="m 22000,9902.7 v -414.6 c -16.7,-8.5 -34.2,-15.1 -52.6,-18.2 -2.8,-0.5 -5.6,-0.9 -8.4,-1.2 -37.7,-3.9 -73.6,17.3 -88.2,52.1 -0.1,0.2 -0.1,0.3 -0.2,0.5 -20.6,49.8 -16.2,106.8 -1.5,158.7 24.7,87.8 78.6,167.1 150.9,222.7"
         style="fill:#040606;fill-opacity:0.1;fill-rule:nonzero;stroke:none"
         id="path206" />
      <path
         d="m 6367.53,6928.12 c -36.65,58.67 -41.69,140.83 2.2,194.29 57.84,70.43 167.15,62.03 238,129.5 70.84,67.46 67.78,177.06 140.95,231.39 55.53,41.23 137.35,32.19 194.16,-7.28 56.81,-39.48 92.1,-103.31 115.16,-168.52 41.33,-116.94 47.23,-285.86 10.36,-404.06 -19.73,-63.25 -70.91,-111.99 -135.05,-128.61 -119.86,-31.07 -288.29,-16.93 -403.07,30.05 -64.02,26.21 -126.05,64.58 -162.71,123.24"
         style="fill:#040606;fill-opacity:0.1;fill-rule:nonzero;stroke:none"
         id="path208" />
      <path
         d="m 7195.45,7076.72 c -18.4,19.19 -35.37,40.4 -45.13,65.11 -0.96,2.43 -1.84,4.91 -2.65,7.4 -10.62,33.09 1.61,69.41 30.21,89.13 0.13,0.08 0.25,0.17 0.39,0.26 40.88,27.98 92.98,34.81 142.42,31.43 87.55,-5.97 172.75,-42.29 237.68,-101.31 29.62,-26.92 55.75,-59.68 65.66,-98.46 9.93,-38.77 0.61,-84.24 -30.4,-109.54 -28.03,-22.86 -67.3,-25.52 -103.37,-22.86 -110.79,8.23 -217.91,58.67 -294.81,138.84"
         style="fill:#040606;fill-opacity:0.1;fill-rule:nonzero;stroke:none"
         id="path210" />
      <path
         d="m 7162.69,6742.14 c -14.87,24.8 -27.75,51.41 -32.13,79.99 -0.43,2.81 -0.77,5.65 -1.01,8.48 -3.27,37.68 18.49,73.26 53.6,87.26 0.16,0.06 0.3,0.12 0.48,0.18 50.13,19.8 107.07,14.44 158.69,-1.1 91.44,-27.51 173.05,-86.64 227.65,-164.97 24.92,-35.72 44.71,-76.79 45.85,-120.33 1.16,-43.53 -19.71,-89.51 -58.74,-108.86 -35.26,-17.47 -77.57,-10.8 -115.2,0.75 -115.55,35.52 -216.99,114.94 -279.19,218.6"
         style="fill:#040606;fill-opacity:0.1;fill-rule:nonzero;stroke:none"
         id="path212" />
      <path
         d="m 6754.03,6656.34 c -18.26,19.3 -38.63,37.29 -62.83,48.25 -2.38,1.08 -4.82,2.08 -7.26,3 -32.53,12.22 -69.41,1.78 -90.5,-25.82 -0.09,-0.12 -0.18,-0.25 -0.28,-0.37 -29.94,-39.47 -39.3,-91.18 -38.34,-140.72 1.7,-87.75 33.82,-174.61 89.6,-242.34 25.44,-30.9 56.89,-58.6 95.14,-70.39 38.23,-11.81 84.1,-4.72 110.89,25.02 24.2,26.88 28.78,65.97 27.87,102.13 -2.81,111.06 -47.97,220.52 -124.29,301.24"
         style="fill:#040606;fill-opacity:0.1;fill-rule:nonzero;stroke:none"
         id="path214" />
      <path
         d="m 7089.81,6672.73 c -24.04,16.07 -49.99,30.23 -78.33,35.99 -2.78,0.57 -5.61,1.05 -8.42,1.43 -37.48,5.11 -74.07,-14.9 -89.77,-49.28 -0.06,-0.15 -0.13,-0.3 -0.2,-0.47 -22.22,-49.1 -19.64,-106.23 -6.64,-158.56 23.01,-92.67 78.1,-177.06 153.66,-235.43 34.46,-26.62 74.52,-48.4 117.95,-51.66 43.43,-3.28 90.37,15.32 111.6,53.36 19.17,34.37 14.57,76.95 4.87,115.1 -29.84,117.14 -104.22,222.34 -204.72,289.52"
         style="fill:#040606;fill-opacity:0.1;fill-rule:nonzero;stroke:none"
         id="path216" />
      <path
         d="m 8022.51,7713.39 c -50.2,47.6 -75.7,125.87 -46.62,188.63 38.31,82.69 146.24,101.99 197.89,185.08 51.64,83.08 21.18,188.4 78.37,259.35 43.42,53.85 124.89,65.62 189.78,41.67 64.9,-23.96 115.08,-76.89 153.76,-134.23 69.35,-102.82 117.45,-264.86 111.42,-388.52 -3.23,-66.19 -40.54,-126.21 -98.46,-158.4 -108.23,-60.14 -274.82,-88.72 -397.72,-72.04 -68.54,9.3 -138.21,30.88 -188.42,78.46"
         style="fill:#040606;fill-opacity:0.1;fill-rule:nonzero;stroke:none"
         id="path218" />
      <path
         d="m 8786.65,8064.99 c -22.62,13.95 -44.37,30.23 -60.02,51.7 -1.54,2.11 -3.02,4.29 -4.42,6.5 -18.59,29.37 -15.86,67.59 6.88,93.86 0.1,0.11 0.2,0.22 0.3,0.35 32.56,37.34 81.28,57.02 129.98,66.16 86.26,16.19 177.84,2.41 255.5,-38.43 35.43,-18.63 68.94,-43.78 88.27,-78.84 19.33,-35.03 21.73,-81.38 -1.94,-113.65 -21.4,-29.17 -58.74,-41.6 -94.33,-48.07 -109.31,-19.84 -225.67,2.11 -320.22,60.42"
         style="fill:#040606;fill-opacity:0.1;fill-rule:nonzero;stroke:none"
         id="path220" />
      <path
         d="m 8838.9,7732.9 c -20.63,20.27 -39.77,42.8 -51.17,69.36 -1.13,2.61 -2.17,5.28 -3.12,7.96 -12.62,35.65 -0.47,75.55 29.99,97.91 0.15,0.1 0.27,0.19 0.42,0.3 43.56,31.74 100.02,40.84 153.9,38.75 95.41,-3.68 189.25,-40.45 261.76,-102.56 33.08,-28.33 62.55,-63.12 74.57,-104.98 12.05,-41.85 3.38,-91.6 -29.54,-120.12 -29.75,-25.76 -72.38,-29.92 -111.7,-28.18 -120.77,5.39 -238.89,56.82 -325.11,141.56"
         style="fill:#040606;fill-opacity:0.1;fill-rule:nonzero;stroke:none"
         id="path222" />
      <path
         d="m 8464.84,7547.29 c -22.52,14.11 -46.75,26.41 -72.93,30.94 -2.57,0.45 -5.18,0.81 -7.78,1.09 -34.56,3.67 -67.63,-15.7 -81.12,-47.71 -0.06,-0.14 -0.11,-0.28 -0.18,-0.43 -19.07,-45.72 -15.16,-98.12 -1.8,-145.84 23.66,-84.51 76.55,-160.53 147.54,-212.1 32.38,-23.52 69.77,-42.44 109.76,-44.26 39.97,-1.84 82.59,16.53 101.06,52.04 16.68,32.09 11.3,71.09 1.35,105.86 -30.58,106.8 -101.77,201.43 -195.9,260.41"
         style="fill:#040606;fill-opacity:0.1;fill-rule:nonzero;stroke:none"
         id="path224" />
      <path
         d="m 8785.76,7647.42 c -27.3,9.52 -55.98,16.71 -84.85,15.18 -2.84,-0.15 -5.69,-0.39 -8.51,-0.73 -37.56,-4.46 -67.96,-33.01 -74.53,-70.22 -0.02,-0.17 -0.05,-0.33 -0.08,-0.51 -9.19,-53.11 7.64,-107.77 33.36,-155.15 45.53,-83.93 120.03,-151.81 207.82,-189.34 40.04,-17.13 84.28,-28.16 127.14,-20.41 42.86,7.72 83.64,37.5 94.64,79.65 9.93,38.08 -5.2,78.15 -24.17,112.64 -58.28,105.91 -156.67,189.08 -270.82,228.89"
         style="fill:#040606;fill-opacity:0.1;fill-rule:nonzero;stroke:none"
         id="path226" />
      <path
         d="m 8309.18,5609.97 c -45.13,52.43 -62.57,132.88 -27.29,192.37 46.48,78.39 155.81,86.66 215.61,164.1 59.79,77.42 40.15,185.29 104.23,250.09 48.64,49.17 130.89,52.63 193.03,22.24 62.13,-30.41 106.7,-88.15 139.37,-149.11 58.58,-109.32 90.03,-275.39 71.51,-397.81 -9.91,-65.52 -53.11,-121.46 -113.99,-147.61 -113.76,-48.88 -282.39,-60.45 -402.96,-31.41 -67.25,16.19 -134.38,44.71 -179.51,97.14"
         style="fill:#040606;fill-opacity:0.1;fill-rule:nonzero;stroke:none"
         id="path228" />
      <path
         d="m 9104.98,5882.39 c -21.08,16.18 -41.08,34.57 -54.47,57.52 -1.32,2.25 -2.57,4.57 -3.74,6.91 -15.52,31.1 -8.94,68.85 16.34,92.68 0.11,0.1 0.22,0.2 0.34,0.31 36.17,33.86 86.64,48.51 136.01,52.67 87.45,7.37 177.17,-15.61 250.3,-64.11 33.35,-22.11 64.15,-50.53 79.83,-87.36 15.69,-36.81 13.38,-83.17 -13.44,-112.88 -24.24,-26.85 -62.65,-35.43 -98.71,-38.27 -110.76,-8.67 -224.29,24.95 -312.46,92.53"
         style="fill:#040606;fill-opacity:0.1;fill-rule:nonzero;stroke:none"
         id="path230" />
      <path
         d="m 9123.34,5546.71 c -18.46,22.26 -35.22,46.61 -43.88,74.2 -0.86,2.71 -1.63,5.47 -2.3,8.23 -8.94,36.75 7.18,75.21 39.75,94.37 0.16,0.08 0.29,0.16 0.45,0.26 46.55,27.17 103.64,30.5 157.03,22.97 94.55,-13.33 184.18,-59.4 250.03,-128.54 30.05,-31.53 55.84,-69.13 63.57,-111.99 7.74,-42.86 -5.92,-91.47 -41.56,-116.51 -32.21,-22.62 -75.03,-22.44 -113.98,-16.72 -119.6,17.59 -231.91,80.71 -309.11,173.73"
         style="fill:#040606;fill-opacity:0.1;fill-rule:nonzero;stroke:none"
         id="path232" />
      <path
         d="m 8732.42,5399.94 c -20.98,16.31 -43.84,31 -69.42,38.16 -2.52,0.71 -5.08,1.33 -7.64,1.87 -34.01,7.15 -68.87,-8.77 -85.53,-39.25 -0.07,-0.13 -0.14,-0.27 -0.22,-0.41 -23.61,-43.55 -25.02,-96.08 -16.56,-144.91 14.98,-86.47 59.9,-167.46 125.31,-225.95 29.83,-26.68 65.11,-49.29 104.71,-55.14 39.58,-5.87 83.85,8.08 105.81,41.54 19.85,30.24 18.45,69.58 12.07,105.18 -19.62,109.35 -80.86,210.69 -168.53,278.91"
         style="fill:#040606;fill-opacity:0.1;fill-rule:nonzero;stroke:none"
         id="path234" />
      <path
         d="m 9061.83,5467.05 c -26.2,12.24 -54,22.3 -82.88,23.71 -2.84,0.13 -5.71,0.18 -8.54,0.13 -37.82,-0.64 -70.96,-25.96 -81.26,-62.32 -0.04,-0.17 -0.08,-0.32 -0.13,-0.5 -14.52,-51.91 -3.31,-107.98 17.48,-157.73 36.8,-88.11 104.04,-163.18 187.59,-209.41 38.09,-21.09 80.99,-36.54 124.41,-33.18 43.43,3.35 87.01,28.85 102.22,69.67 13.74,36.88 2.74,78.27 -12.64,114.51 -47.26,111.26 -136.73,203.96 -246.25,255.12"
         style="fill:#040606;fill-opacity:0.1;fill-rule:nonzero;stroke:none"
         id="path236" />
      <path
         d="m 9883.51,6418.32 c -56.84,39.43 -93.91,112.93 -74.69,179.37 25.33,87.54 129.09,122.99 167.54,212.95 38.44,89.95 -7.63,189.44 38.14,268.24 34.7,59.81 113.5,83.8 181.3,69.97 67.7,-13.85 125.4,-58.56 172.3,-109.37 84.1,-91.12 156.3,-243.99 169,-367.14 6.9,-65.9 -20.9,-130.89 -73.3,-171.49 -97.8,-75.86 -258.1,-129.37 -382.1,-131.52 -69.2,-1.2 -141.35,9.57 -198.19,48.99"
         style="fill:#040606;fill-opacity:0.1;fill-rule:nonzero;stroke:none"
         id="path238" />
      <path
         d="m 10585.5,6881.71 c -24.5,10.37 -48.4,23.16 -67.2,42.01 -1.8,1.85 -3.6,3.78 -5.3,5.75 -22.8,26.21 -25.9,64.41 -7.5,93.82 0.1,0.13 0.2,0.25 0.3,0.39 26.5,41.84 71.7,68.69 118.4,85.11 82.8,29.08 175.5,29.34 258.4,0.75 37.8,-13.04 74.8,-32.82 99.2,-64.54 24.4,-31.69 33.8,-77.14 15.3,-112.63 -16.7,-32.08 -51.7,-50.03 -85.9,-61.82 -105.1,-36.18 -223.4,-32.13 -325.7,11.16"
         style="fill:#040606;fill-opacity:0.1;fill-rule:nonzero;stroke:none"
         id="path240" />
      <path
         d="m 10687.5,6561.39 c -23.5,16.91 -45.8,36.27 -61.1,60.8 -1.5,2.41 -2.9,4.89 -4.3,7.39 -17.9,33.33 -11.9,74.61 14.8,101.33 0.1,0.12 0.3,0.23 0.4,0.36 38.2,37.98 92.7,55.54 146.2,61.64 94.9,10.83 193.2,-11.28 274.3,-61.69 37,-22.98 71.4,-52.9 89.6,-92.45 18.3,-39.54 17.3,-90.03 -10.9,-123.21 -25.6,-29.98 -67.1,-40.55 -106.2,-44.79 -120.2,-12.98 -244.7,19.93 -342.8,90.62"
         style="fill:#040606;fill-opacity:0.1;fill-rule:nonzero;stroke:none"
         id="path242" />
      <path
         d="m 10345.9,6321.21 c -24.4,10.53 -50.2,19.01 -76.8,19.52 -2.6,0.05 -5.2,0.01 -7.8,-0.1 -34.7,-1.62 -64.5,-25.77 -73,-59.46 0,-0.15 0,-0.29 -0.1,-0.45 -11.9,-48.08 -0.1,-99.29 20.3,-144.43 36.2,-79.94 100.1,-147.07 178,-187.28 35.6,-18.34 75.4,-31.37 115.2,-27.1 39.8,4.25 79.2,28.87 92,66.76 11.7,34.26 0.4,71.98 -14.7,104.84 -46.4,100.93 -131.1,183.67 -233.1,227.7"
         style="fill:#040606;fill-opacity:0.1;fill-rule:nonzero;stroke:none"
         id="path244" />
      <path
         d="m 10647.9,6468.84 c -28.4,5.27 -57.8,8.03 -86.1,2.14 -2.8,-0.57 -5.6,-1.25 -8.3,-2.01 -36.5,-10.11 -62.2,-42.93 -63.1,-80.71 0,-0.18 0,-0.33 0,-0.52 -1,-53.89 23.9,-105.36 56.5,-148.3 57.8,-76.05 141.7,-131.85 234.2,-155.63 42.1,-10.86 87.5,-15.05 128.7,-0.9 41.2,14.13 77,49.75 81.5,93.08 4,39.15 -17,76.45 -41,107.67 -73.6,95.85 -183.5,163.14 -302.4,185.18"
         style="fill:#040606;fill-opacity:0.1;fill-rule:nonzero;stroke:none"
         id="path246" />
    </g>
  </g>
</svg>
